SplineFontDB: 3.0
FontName: TauntonSwank
FullName: Taunton Swank
FamilyName: TauntonSwank
Weight: Regular
Copyright: Copyright (c) 2015, Terrence Curran
UComments: "2015-5-25: Created with FontForge (http://fontforge.org)"
Version: 001.000
ItalicAngle: 0
UnderlinePosition: -100
UnderlineWidth: 50
Ascent: 800
Descent: 200
InvalidEm: 0
LayerCount: 2
Layer: 0 0 "Back" 1
Layer: 1 0 "Fore" 0
XUID: [1021 270 -1463357204 2819058]
FSType: 0
OS2Version: 0
OS2_WeightWidthSlopeOnly: 0
OS2_UseTypoMetrics: 1
CreationTime: 1432540265
ModificationTime: 1477199833
PfmFamily: 17
TTFWeight: 400
TTFWidth: 5
LineGap: 90
VLineGap: 0
OS2TypoAscent: 0
OS2TypoAOffset: 1
OS2TypoDescent: 0
OS2TypoDOffset: 1
OS2TypoLinegap: 90
OS2WinAscent: 0
OS2WinAOffset: 1
OS2WinDescent: 0
OS2WinDOffset: 1
HheadAscent: 0
HheadAOffset: 1
HheadDescent: 0
HheadDOffset: 1
OS2CapHeight: 0
OS2XHeight: 0
OS2Vendor: 'GRIL'
MarkAttachClasses: 1
DEI: 91125

StartChar: W
Encoding: 87 87 0
Width: 556
VWidth: 0
Flags: W
HStem: -2 82<144.962 235.129 322.9 414.038> 572 20G<60 141 239 320 418 499> 572 20G<60 141 239 320 418 499>
VStem: 60 81<84.4075 592> 239 81<83.7598 592> 418 81<84.4075 592>
CounterMasks: 1 1c
LayerCount: 2
Back
Fore
SplineSet
280 20 m 1xdc
 261 5 235 -2 203 -2 c 1
 177 -2 l 1
 104 -2 60 37 60 115 c 10
 60 592 l 17
 141 592 l 9
 141 124 l 2
 142 92 149 80 186 80 c 0
 227 80 239 90 239 124 c 2
 239 592 l 17
 320 592 l 1
 320 124 l 2
 320 92 328 80 365 80 c 0
 406 80 418 90 418 124 c 2
 418 592 l 17
 499 592 l 9
 499 115 l 18
 499 37 455 -2 382 -2 c 1
 356 -2 l 1
 324 -2 299 5 280 20 c 1xdc
EndSplineSet
EndChar

StartChar: S
Encoding: 83 83 1
Width: 371
VWidth: 0
Flags: W
HStem: 600 20G<258.256 302.194>
VStem: 38 294
LayerCount: 2
Back
Fore
SplineSet
143 296 m 1
 94 400 l 2
 75 441 74 476 114 503 c 2
 288 620 l 1
 332 558 l 1
 167 447 l 2
 159 442 161 435 164 428 c 2
 223 305 l 1
 276 193 l 6
 295 152 296 117 256 90 c 6
 82 -27 l 5
 38 35 l 5
 203 146 l 6
 211 151 209 158 206 165 c 6
 143 296 l 1
EndSplineSet
EndChar

StartChar: A
Encoding: 65 65 2
Width: 529
VWidth: 0
Flags: W
HStem: 0 21G<117 198 334 415.049> 0 21G<117 198 334 415.049> 193 93<81 117.135 197.815 334.184 415.469 449> 512 82<205.12 327.035>
VStem: 117 81<0 193 286 501.194> 334 81<0 193 286 504.422>
LayerCount: 2
Back
Fore
SplineSet
197.409179688 286 m 1x3c
 334.212890625 286 l 1
 334 468 l 6
 334 502 309.09765625 512 266 512 c 4
 223.916015625 512 198 500 198 468 c 6
 197.409179688 286 l 1x3c
415.46875 193 m 1
 415 0 l 1
 334 0 l 1
 334.18359375 193 l 1
 197.815429688 193 l 1
 198 0 l 1
 117 0 l 1xbc
 117.134765625 193 l 1
 41 193 l 9
 81 286 l 17
 117.5 286 l 1
 117 477 l 6
 117 555 161.498046875 594 234 594 c 5
 298 594 l 5
 371 594 415 555 415 477 c 6
 415 286 l 1
 489 286 l 9
 449 193 l 17
 415.46875 193 l 1
EndSplineSet
EndChar

StartChar: N
Encoding: 78 78 3
Width: 443
VWidth: 0
Flags: W
HStem: 0 21G<90 171 307 388> 0 21G<90 171 307 388> 512 82<194.523 301.146>
VStem: 90 81<0 403.213 567.5 594> 307 81<0 504.422>
LayerCount: 2
Back
Fore
SplineSet
90 508.770507812 m 1xb8
 90 594 l 1
 171 594 l 1
 171 567.5 l 1
 201.280273438 583.354492188 234.005859375 594 271 594 c 0
 344 594 388 555 388 477 c 2
 388 0 l 1
 307 0 l 1
 307 468 l 2
 307 502 283 512 253 512 c 0
 228.515625 512 199.0234375 495.353515625 171 473.890625 c 1
 171 0 l 1
 90 0 l 1
 90 403.212890625 l 1
 42 457 l 1
 54.04296875 470.626953125 70.083984375 489.375976562 90 508.770507812 c 1xb8
EndSplineSet
EndChar

StartChar: K
Encoding: 75 75 4
Width: 498
VWidth: 0
Flags: W
HStem: 0 21G<108 189 318 399> 0 21G<108 189 318 399> 196 93<221 309.12> 572 20G<108 189 331.51 459> 572 20G<108 189 331.51 459>
VStem: 108 81<0 196 388 592> 318 81<0 188.896>
LayerCount: 2
Back
Fore
SplineSet
108 285 m 1xb6
 108 592 l 1
 189 592 l 1
 189 388 l 1
 347 592 l 1
 459 592 l 1
 221 289 l 1
 295 289 l 2
 345 289 399 253 399 198 c 2
 399 0 l 1
 318 0 l 1
 318 148 l 2
 318 168 300 196 275 196 c 2
 189 196 l 1
 189 0 l 1
 108 0 l 1
 108 196 l 1
 39 196 l 1
 108 285 l 1xb6
EndSplineSet
EndChar

StartChar: L
Encoding: 76 76 5
Width: 430
VWidth: 0
Flags: W
HStem: 0 93<80 94 175 348> 572 20G<94 175> 572 20G<94 175>
VStem: 94 81<93 592>
LayerCount: 2
Back
Fore
SplineSet
175 93 m 5xd0
 388 93 l 13
 348 0 l 21
 40 0 l 13
 80 93 l 21
 94 93 l 5
 94 592 l 1
 175 592 l 1
 175 93 l 5xd0
EndSplineSet
EndChar

StartChar: M
Encoding: 77 77 6
Width: 660
VWidth: 0
Flags: W
HStem: 0 21G<90 171 307 388 524 605> 0 21G<90 171 307 388 524 605> 512 82<194.523 302.148 411.6 518.146>
VStem: 90 81<0 403.213 567.5 594> 307 81<0 488.9> 524 81<0 504.422>
CounterMasks: 1 1c
LayerCount: 2
Back
Fore
SplineSet
368.243164062 551.299804688 m 1xbc
 411 586 451.005859375 594 488 594 c 0
 561 594 605 555 605 477 c 2
 605 0 l 1
 524 0 l 1
 524 468 l 2
 524 502 500 512 470 512 c 0
 445.515625 512 416.0234375 495.353515625 388 473.890625 c 1
 388 0 l 1
 307 0 l 1
 307 468 l 2
 307 502 283 512 253 512 c 0
 228.515625 512 199.0234375 495.353515625 171 473.890625 c 1
 171 0 l 1
 90 0 l 1
 90 403.212890625 l 1
 42 457 l 1
 54.04296875 470.626953125 70.083984375 489.375976562 90 508.770507812 c 1
 90 594 l 1
 171 594 l 1
 171 567.5 l 1
 201.280273438 583.354492188 234.005859375 594 271 594 c 0
 315.100585938 594 348.6171875 579.766601562 368.243164062 551.299804688 c 1xbc
EndSplineSet
EndChar

StartChar: E
Encoding: 69 69 7
Width: 435
VWidth: 0
Flags: W
HStem: 0 93<82 96 177 350> 270 93<178 260> 499 93<82 96 177 350> 583 20G<96 177>
VStem: 96 81<93 270 363 499 592 603>
LayerCount: 2
Back
Fore
SplineSet
96 499 m 5xe8
 42 499 l 5
 82 592 l 5
 96 592 l 5xe8
 96 603 l 5
 177 603 l 5xd8
 177 592 l 5
 390 592 l 5
 350 499 l 5
 177 499 l 5
 178 363 l 1
 300 363 l 9
 260 270 l 17
 177 270 l 1
 177 93 l 1
 390 93 l 9
 350 0 l 17
 42 0 l 9
 82 93 l 17
 96 93 l 1
 96 499 l 5xe8
EndSplineSet
EndChar

StartChar: F
Encoding: 70 70 8
Width: 430
VWidth: 0
Flags: W
HStem: 0 21G<96 177> 0 21G<96 177> 270 93<177 260> 499 93<82 96 177 350> 583 20G<96 177>
VStem: 96 81<0 270 363 499 592 603>
LayerCount: 2
Back
Fore
SplineSet
177 0 m 1xb4
 96 0 l 1
 96 499 l 5
 42 499 l 5
 82 592 l 5
 96 592 l 5xb4
 96 603 l 5
 177 603 l 5x2c
 177 592 l 5
 390 592 l 5
 350 499 l 5
 177 499 l 5
 177 363 l 1
 300 363 l 9
 260 270 l 17
 177 270 l 1
 177 0 l 1xb4
EndSplineSet
EndChar

StartChar: I
Encoding: 73 73 9
Width: 434
VWidth: 0
Flags: W
HStem: 0 93<82 168 249 350> 499 93<82 168 249 350>
VStem: 168 81<93 499>
LayerCount: 2
Back
Fore
SplineSet
249 499 m 1
 249 93 l 1
 390 93 l 9
 350 0 l 17
 42 0 l 9
 82 93 l 17
 168 93 l 1
 168 499 l 1
 42 499 l 1
 82 592 l 1
 390 592 l 1
 350 499 l 1
 249 499 l 1
EndSplineSet
EndChar

StartChar: J
Encoding: 74 74 10
Width: 491
VWidth: 0
Flags: W
HStem: -2 82<134.931 222.035> 499 93<143 229 310 411>
VStem: 229 81<88.5352 499>
LayerCount: 2
Back
Fore
SplineSet
122 134 m 1
 128 96 151 80 174 80 c 0
 196 80 229 89 229 123 c 1
 229 499 l 1
 103 499 l 1
 143 592 l 1
 451 592 l 1
 411 499 l 1
 310 499 l 1
 310 116 l 1
 310 38 266 -2 193 -2 c 1
 163 -2 l 1
 90.498046875 -2 62 35 44 103 c 1
 122 134 l 1
EndSplineSet
EndChar

StartChar: H
Encoding: 72 72 11
Width: 510
VWidth: 0
Flags: W
HStem: 0 21G<96 177 336 417> 0 21G<96 177 336 417> 196 93<82 96 177 336 417 430> 572 20G<96 177 336 417> 572 20G<96 177 336 417>
VStem: 96 81<0 196 289 592> 336 81<0 196 289 592>
LayerCount: 2
Back
Fore
SplineSet
336 196 m 1xb6
 177 196 l 1
 177 0 l 1
 96 0 l 1
 96 196 l 1
 42 196 l 1
 82 289 l 1
 96 289 l 1
 96 592 l 5
 177 592 l 5
 177 289 l 1
 336 289 l 1
 336 592 l 5
 417 592 l 5
 417 289 l 1
 470 289 l 1
 430 196 l 1
 417 196 l 1
 417 0 l 1
 336 0 l 1
 336 196 l 1xb6
EndSplineSet
EndChar

StartChar: V
Encoding: 86 86 12
Width: 409
VWidth: 0
Flags: W
HStem: 572 20G<48 131.092 282.908 366> 572 20G<48 131.092 282.908 366>
VStem: 48 318
LayerCount: 2
Back
Fore
SplineSet
207 -2 m 0xa0
 187 -2 137.43359375 7.9853515625 131 50 c 2
 48 592 l 1
 128 592 l 1
 207 81 l 1
 286 592 l 1
 366 592 l 1
 283 50 l 2
 276.56640625 7.9853515625 227 -2 207 -2 c 0xa0
EndSplineSet
EndChar

StartChar: G
Encoding: 71 71 13
Width: 404
VWidth: 0
Flags: W
HStem: -2 82<141.965 264.035> 512 82<141.965 264.035>
VStem: 54 81<90.8059 501.194> 271 81<89.7034 186 468 504.538>
LayerCount: 2
Back
Fore
SplineSet
271 186 m 1
 203 144 l 1
 203 237 l 1
 352 327 l 1
 352 124 l 1
 352 46 308 -2 235 -2 c 1
 171 -2 l 1
 98 -2 54 37 54 115 c 1
 54 477 l 1
 54 555 98 594 171 594 c 1
 235 594 l 1
 308 594 352 553 352 468 c 1
 271 468 l 1
 271 502 246 512 203 512 c 0
 161 512 135 500 135 468 c 1
 135 124 l 1
 135 92 161 80 203 80 c 0
 246 80 271 90 271 124 c 1
 271 186 l 1
EndSplineSet
EndChar

StartChar: O
Encoding: 79 79 14
Width: 419
VWidth: 0
Flags: W
HStem: -2 82<141.965 264.035> 512 82<141.965 264.035>
VStem: 54 81<90.8059 501.194> 271 81<87.5781 504.422>
LayerCount: 2
Back
Fore
SplineSet
352 115 m 1
 352 37 308 -2 235 -2 c 1
 171 -2 l 1
 98 -2 54 37 54 115 c 1
 54 477 l 1
 54 555 98 594 171 594 c 1
 235 594 l 1
 308 594 352 555 352 477 c 1
 352 115 l 1
271 124 m 1
 271 468 l 1
 271 502 246 512 203 512 c 0
 161 512 135 500 135 468 c 1
 135 124 l 1
 135 92 161 80 203 80 c 0
 246 80 271 90 271 124 c 1
EndSplineSet
EndChar

StartChar: Q
Encoding: 81 81 15
Width: 454
VWidth: 0
Flags: W
HStem: -2 82<141.965 265.366> 512 82<141.965 264.035>
VStem: 54 81<90.8059 501.194> 271 81<87.8333 504.422>
LayerCount: 2
Back
Fore
SplineSet
345 68 m 1
 417 20 l 1
 373 -42 l 1
 295 10 l 1
 278 2 258 -2 235 -2 c 1
 171 -2 l 1
 98 -2 54 37 54 115 c 1
 54 477 l 1
 54 555 98 594 171 594 c 1
 235 594 l 1
 308 594 352 555 352 477 c 1
 352 115 l 1
 352 97 349 82 345 68 c 1
271 124 m 1
 271 468 l 1
 271 502 246 512 203 512 c 0
 161 512 135 500 135 468 c 1
 135 124 l 1
 135 92 161 80 203 80 c 0
 246 80 271 90 271 124 c 1
EndSplineSet
EndChar

StartChar: U
Encoding: 85 85 16
Width: 415
VWidth: 0
Flags: W
HStem: -2 82<148.12 270.035> 572 20G<60 141 277 358> 572 20G<60 141 277 358>
VStem: 60 81<90.8059 592> 277 81<87.5781 592>
LayerCount: 2
Back
Fore
SplineSet
358 592 m 1xd8
 358 115 l 1
 358 37 314 -2 241 -2 c 1
 177 -2 l 1
 104.498046875 -2 60 37 60 115 c 1
 60 592 l 1
 141 592 l 1
 141 124 l 1
 141 92 166.916015625 80 209 80 c 0
 252.09765625 80 277 90 277 124 c 1
 277 592 l 1
 358 592 l 1xd8
EndSplineSet
EndChar

StartChar: C
Encoding: 67 67 17
Width: 402
VWidth: 0
Flags: W
HStem: -2 82<141.965 264.035> 512 82<141.965 264.035>
VStem: 54 81<90.8059 501.194> 271 81<89.7034 124 468 504.538>
LayerCount: 2
Back
Fore
SplineSet
352 124 m 1
 352 46 308 -2 235 -2 c 1
 171 -2 l 1
 98 -2 54 37 54 115 c 1
 54 477 l 1
 54 555 98 594 171 594 c 1
 235 594 l 1
 308 594 352 553 352 468 c 1
 271 468 l 1
 271 502 246 512 203 512 c 0
 161 512 135 500 135 468 c 1
 135 124 l 1
 135 92 161 80 203 80 c 0
 246 80 271 90 271 124 c 1
 352 124 l 1
EndSplineSet
EndChar

StartChar: P
Encoding: 80 80 18
Width: 506
VWidth: 0
Flags: W
HStem: 0 21G<96 177> 0 21G<96 177> 279 93<177 364.752> 499 93<82 96 177 362.194> 583 20G<96 177>
VStem: 96 81<0 279 372 499 592 603> 373 82<379.428 491.571>
LayerCount: 2
Back
Fore
SplineSet
328 372 m 5x36
 361 372 373 402 373 431 c 4
 373 464 363 499 329 499 c 6
 177 499 l 5
 177 372 l 5
 328 372 l 5x36
337 278 m 5
 177 279 l 5
 177 0 l 1
 96 0 l 1
 96 499 l 5
 42 499 l 5
 82 592 l 5
 96 592 l 5xb6
 96 603 l 5
 177 603 l 5x2e
 177 592 l 5
 338 592 l 6
 416 592 455 548 455 475 c 5
 455 396 l 5
 455 323 416 279 337 278 c 5
EndSplineSet
EndChar

StartChar: R
Encoding: 82 82 19
Width: 504
VWidth: 0
Flags: W
HStem: 0 21G<96 177 326.774 410> 0 21G<96 177 326.774 410> 279 93<177 285> 499 93<82 96 177 362.194> 583 20G<96 177>
VStem: 96 81<0 279 372 499 592 603> 373 82<378.82 491.571>
LayerCount: 2
Back
Fore
SplineSet
285 279 m 1xb6
 177 279 l 1
 177 0 l 1
 96 0 l 1
 96 499 l 1
 42 499 l 1
 82 592 l 1
 96 592 l 1xb6
 96 603 l 1
 177 603 l 1x2e
 177 592 l 1
 338 592 l 2
 416 592 455 548 455 475 c 1
 455 396 l 1
 455 333 425 290 364 281 c 1
 410 0 l 1
 330 0 l 1
 285 279 l 1xb6
328 372 m 1
 361 372 373 402 373 431 c 0
 373 464 363 499 329 499 c 2
 177 499 l 1
 177 372 l 1
 328 372 l 1
EndSplineSet
EndChar

StartChar: X
Encoding: 88 88 20
Width: 485
VWidth: 0
Flags: W
HStem: 0 21G<51 157.208 331 437> 0 21G<51 157.208 331 437> 572 20G<43 146.237 341.763 445> 572 20G<43 146.237 341.763 445>
LayerCount: 2
Back
Fore
SplineSet
245 192 m 1xa0
 147 0 l 1
 51 0 l 1
 198 287 l 1
 43 592 l 1
 136 592 l 1
 244 381 l 1
 352 592 l 1
 445 592 l 1
 291 287 l 1
 437 0 l 1
 341 0 l 1
 245 192 l 1xa0
EndSplineSet
EndChar

StartChar: D
Encoding: 68 68 21
Width: 483
VWidth: 0
Flags: W
HStem: 0 93<86 100 181.042 345.038> 499 93<86 100 181 342.035> 583 20G<100 181>
VStem: 100 81<-11 0 93 499 592 603> 349 81<96.0908 490.157>
LayerCount: 2
Back
Fore
SplineSet
181 499 m 1xd8
 181 93 l 1
 181 93 239 92 281 92 c 0
 324 92 349 92 349 126 c 1
 349 455 l 1
 349 489 324 499 281 499 c 1
 181 499 l 1xd8
181 592 m 1
 313 592 l 1
 386 592 430 554 430 476 c 1
 430 117 l 1
 430 39 386 0 313 0 c 1
 181 0 l 1
 181 -11 l 1
 100 -11 l 1
 100 0 l 1
 86 0 l 1
 46 93 l 1
 100 93 l 1
 100 499 l 1
 46 499 l 1
 86 592 l 1
 100 592 l 1xd8
 100 603 l 1
 181 603 l 1xb8
 181 592 l 1
EndSplineSet
EndChar

StartChar: B
Encoding: 66 66 22
Width: 507
VWidth: 0
Flags: W
HStem: 0 93<86 100 181 366.194> 279 93<181 314.875> 499 93<86 100 181 314.194> 583 20G<100 181>
VStem: 100 81<-11 0 93 279 372 499 592 603> 325 82<380.563 491.035> 377 82<103.656 271.373>
LayerCount: 2
Back
Fore
SplineSet
100 499 m 5xea
 46 499 l 5
 86 592 l 5
 100 592 l 5xea
 100 603 l 5
 181 603 l 5xda
 181 592 l 5
 290 592 l 6
 368 592 407 554 407 481 c 5
 407 437 l 6xec
 407 413 403 377 369 356 c 5
 415 355 459 316 459 267 c 5
 459 117 l 1
 459 44 420 0 342 0 c 2
 181 0 l 1
 181 -11 l 1
 100 -11 l 1
 100 0 l 1
 86 0 l 1
 46 93 l 1
 100 93 l 1
 100 499 l 5xea
280 372 m 5
 313 372 325 407 325 436 c 4xec
 325 469 315 499 281 499 c 6
 181 499 l 5
 181 372 l 5
 280 372 l 5
181 93 m 1
 333 93 l 2
 353 93 377 114 377 148 c 2
 377 218 l 6xca
 377 247 366.993164062 277.899414062 332.298828125 278.104492188 c 6
 181 279 l 5
 181 93 l 1
EndSplineSet
EndChar

StartChar: Y
Encoding: 89 89 23
Width: 485
VWidth: 0
Flags: W
HStem: 0 21G<204 284> 0 21G<204 284> 572 20G<43 146.189 341.811 445> 572 20G<43 146.189 341.811 445>
VStem: 204 80<0 281>
LayerCount: 2
Back
Fore
SplineSet
204 281 m 1xa8
 43 592 l 1
 136 592 l 1
 244 380 l 5
 352 592 l 5
 445 592 l 1
 284 281 l 1
 284 0 l 1
 204 0 l 1
 204 281 l 1xa8
EndSplineSet
EndChar

StartChar: Z
Encoding: 90 90 24
Width: 370
VWidth: 0
Flags: W
LayerCount: 2
Back
Fore
SplineSet
228 296 m 1
 277 400 l 2
 296 441 297 476 257 503 c 2
 83 620 l 1
 39 558 l 1
 204 447 l 2
 212 442 210 435 207 428 c 2
 148 305 l 1
 95 193 l 2
 76 152 75 117 115 90 c 2
 289 -27 l 1
 333 35 l 1
 168 146 l 2
 160 151 162 158 165 165 c 2
 228 296 l 1
EndSplineSet
EndChar

StartChar: T
Encoding: 84 84 25
Width: 429
VWidth: 0
Flags: W
HStem: 0 21G<167 248> 0 21G<167 248> 499 93<81 167 248 349>
VStem: 167 81<0 499>
LayerCount: 2
Back
Fore
SplineSet
248 499 m 5xb0
 248 0 l 1
 167 0 l 1
 167 499 l 5
 41 499 l 5
 81 592 l 5
 389 592 l 5
 349 499 l 5
 248 499 l 5xb0
EndSplineSet
EndChar

